<svg width="72" height="72" viewBox="0 0 72 72" xmlns="http://www.w3.org/2000/svg"><path d="M65.5446747 19.7745188c-1.5414252-3.9182834-3.8422181-7.49181-6.7695369-10.51425399-2.888638-2.94865964-6.3478232-5.27518046-10.1655355-6.83696565C44.6062086.78831723 40.3189053-.03473859 35.9958932.00178006 22.9597079-.1367332 11.19733962 7.81954236 6.45160363 19.9860641c-1.66139743 4.2173846-2.49273244 8.7170196-2.4481736 13.2508406-.06398528 4.5690887.76779863 9.1063258 2.4481736 13.3543628 1.55879946 3.8796853 3.86002519 7.4163463 6.77402898 10.4107317 2.88659249 2.9490333 6.34439799 5.2756544 10.16104349 6.8369657 4.003707 1.6334414 8.2909992 2.4549652 12.6137091 2.4170181 1.2937138 0 0 4.744017 0 4.744017 3.6161097 0 10.4665037-4.0508684 13.0269788-5.6217051 2.5604752-1.5708368 6.8638702-5.4326646 9.7477738-8.3762957 2.927599-3.0222207 5.2284301-6.5958067 6.7695369-10.5142539 1.6759558-4.2871039 2.5087967-8.8584671 2.4526657-13.462386.0426764-4.5340764-.7901699-9.0336354-2.4526657-13.2508405zm-30.0968131 31.641783c-8.9841233 0-16.2702473-8.0432242-16.2702473-17.9678518 0-9.9246275 7.286124-17.9633508 16.2702473-17.9633508 8.9841234 0 16.2702474 8.0432243 16.2702474 17.9678518 0 9.9246276-7.286124 17.9633508-16.2702474 17.9633508z" fill="#2579DA" fill-rule="nonzero"/></svg>